<?xml version="1.0" ?><!DOCTYPE svg  PUBLIC '-//W3C//DTD SVG 1.1//EN'  'http://www.w3.org/Graphics/SVG/1.1/DTD/svg11.dtd'><svg enable-background="new 0 0 75 75" height="75px" id="Layer_1" version="1.1" viewBox="0 0 75 75" width="75px" xml:space="preserve" xmlns="http://www.w3.org/2000/svg" xmlns:xlink="http://www.w3.org/1999/xlink"><g><path d="M68.711,27.081h-23.68h-0.215H30.184h-0.215H6.289c0,6.334,4.932,11.502,11.162,11.906   c-0.012,0.215-0.033,0.428-0.033,0.645V55.53c0,6.932,5.621,12.551,12.551,12.551h15.062c6.932,0,12.551-5.619,12.551-12.551   V39.632c0-0.217-0.021-0.43-0.033-0.645C63.779,38.583,68.711,33.415,68.711,27.081z" fill="#EA7628"/><path d="M57.582,42.151v-2.52c0-0.217-0.021-0.43-0.033-0.645c5.15-0.334,9.404-3.928,10.729-8.74H45.031h-0.215   H30.184h-0.215H6.725c1.322,4.812,5.576,8.406,10.727,8.74c-0.012,0.215-0.033,0.428-0.033,0.645v2.52   c0.012,0,0.021,0.002,0.033,0.004c-0.012,0.213-0.033,0.428-0.033,0.645v12.73c0,6.932,5.621,12.551,12.551,12.551h15.062   c6.932,0,12.551-5.619,12.551-12.551V42.8c0-0.217-0.021-0.432-0.033-0.645C57.561,42.153,57.57,42.151,57.582,42.151z" fill="#C6621E"/><path d="M37.514,30.247h-7.33h-0.215H6.725c1.322,4.812,5.576,8.406,10.727,8.74   c-0.012,0.215-0.033,0.428-0.033,0.645v2.52c0.012,0,0.021,0.002,0.033,0.004c-0.012,0.213-0.033,0.428-0.033,0.645v12.73   c0,6.932,5.621,12.551,12.551,12.551h7.545V30.247z" fill="#D36B24"/><g><path d="M17.418,39.862c0-0.217,0.021-0.432,0.033-0.645c-0.004-0.002-0.008-0.002-0.012-0.002    c-0.01,0.139-0.021,0.277-0.021,0.416V39.862z" fill="#A0490E"/><path d="M57.549,39.218c0.012,0.213,0.033,0.428,0.033,0.645v-0.23c0-0.139-0.012-0.277-0.021-0.416    C57.557,39.216,57.553,39.216,57.549,39.218z" fill="#A0490E"/><path d="M45.031,65.144H29.969c-6.93,0-12.551-5.619-12.551-12.551v2.938c0,6.932,5.621,12.551,12.551,12.551    h15.062c6.932,0,12.551-5.619,12.551-12.551v-2.938C57.582,59.524,51.963,65.144,45.031,65.144z" fill="#A0490E"/></g><g><line fill="#C6621E" x1="19.869" x2="16.842" y1="38.933" y2="38.933"/><line fill="#C6621E" x1="58.16" x2="55.131" y1="38.933" y2="38.933"/></g><g><path d="M24.303,27.081h4.627c-0.02-0.059-0.031-0.117-0.059-0.176l-3.658-8.166l2.586-3.137    c0.434-0.523,0.586-1.221,0.418-1.877l-0.869-3.379C27.059,9.212,25.9,8.53,24.766,8.819c-1.133,0.291-1.816,1.449-1.525,2.584    l0.602,2.334l-0.562,0.682L20.48,8.173c-0.477-1.068-1.73-1.547-2.803-1.068c-1.068,0.479-1.547,1.732-1.068,2.803l4.453,9.938    l-1.166-0.186l-2.406-4.312c-0.57-1.025-1.861-1.393-2.885-0.82c-1.023,0.57-1.391,1.861-0.82,2.885l2.908,5.215    c0.316,0.566,0.877,0.959,1.518,1.061l4.922,0.785L24.303,27.081z" fill="#EAB818"/><path d="M50.699,27.081H46.07c0.02-0.059,0.033-0.117,0.059-0.176l3.658-8.166l-2.586-3.137    c-0.432-0.523-0.586-1.221-0.418-1.877l0.869-3.379c0.291-1.135,1.447-1.816,2.582-1.527c1.135,0.291,1.818,1.449,1.525,2.584    l-0.6,2.334l0.561,0.682l2.799-6.246c0.479-1.068,1.732-1.547,2.803-1.068s1.547,1.732,1.07,2.803l-4.453,9.938l1.164-0.186    l2.406-4.312c0.57-1.025,1.861-1.393,2.887-0.82c1.021,0.57,1.389,1.861,0.818,2.885l-2.908,5.215    c-0.316,0.566-0.875,0.959-1.518,1.061l-4.92,0.785L50.699,27.081z" fill="#EAB818"/></g><g><path d="M25.758,19.954l-0.545-1.215l2.586-3.137c0.123-0.148,0.217-0.314,0.295-0.486l-0.746-2.895    c-0.289-1.135-1.447-1.816-2.582-1.527c-0.65,0.168-1.145,0.625-1.4,1.195l0.477,1.848l-0.367,0.447l0.367,1.428l-0.562,0.682    l-2.799-6.246c-0.477-1.068-1.73-1.547-2.803-1.068c-0.473,0.211-0.82,0.578-1.031,1.012l4.416,9.854l-0.906-0.143l0.906,2.018    l-1.166-0.186l-2.406-4.312c-0.57-1.025-1.861-1.393-2.885-0.82c-0.389,0.217-0.68,0.537-0.865,0.906    c0.018,0.033,0.027,0.07,0.045,0.104l2.908,5.215c0.316,0.566,0.877,0.959,1.518,1.061l4.922,0.785l1.17,2.609h3.807l-2.896-6.467    L25.758,19.954z" fill="#ED9015"/><path d="M49.787,20.614l-2.896,6.467h3.809l1.17-2.609l4.92-0.785c0.643-0.102,1.201-0.494,1.518-1.061    l2.908-5.215c0.018-0.033,0.027-0.07,0.045-0.104c-0.184-0.369-0.477-0.689-0.863-0.906c-1.025-0.572-2.316-0.205-2.887,0.82    l-2.406,4.312l-1.164,0.186l0.904-2.018l-0.904,0.143l4.414-9.854c-0.209-0.434-0.559-0.801-1.031-1.012    c-1.07-0.479-2.324,0-2.803,1.068l-2.799,6.246l-0.561-0.682l0.367-1.428l-0.367-0.447l0.475-1.848    c-0.254-0.57-0.748-1.027-1.4-1.195c-1.135-0.289-2.291,0.393-2.582,1.527l-0.744,2.895c0.076,0.172,0.17,0.338,0.293,0.486    l2.586,3.137l-0.545,1.215L49.787,20.614z" fill="#ED9015"/></g><g><g><path d="M30.711,48.331c-0.414,0-0.75-0.336-0.75-0.75c0-1.079-0.879-1.957-1.959-1.957s-1.959,0.878-1.959,1.957     c0,0.414-0.336,0.75-0.75,0.75s-0.75-0.336-0.75-0.75c0-1.906,1.552-3.457,3.459-3.457s3.459,1.551,3.459,3.457     C31.461,47.995,31.125,48.331,30.711,48.331z" fill="#093260"/></g><g><path d="M49.707,48.331c-0.414,0-0.75-0.336-0.75-0.75c0-1.079-0.879-1.957-1.959-1.957     c-1.079,0-1.957,0.878-1.957,1.957c0,0.414-0.336,0.75-0.75,0.75s-0.75-0.336-0.75-0.75c0-1.906,1.551-3.457,3.457-3.457     c1.907,0,3.459,1.551,3.459,3.457C50.457,47.995,50.121,48.331,49.707,48.331z" fill="#093260"/></g></g><path d="M44.471,55.073c-0.414,0-0.75,0.336-0.75,0.75c0,1.508-1.227,2.734-2.734,2.734   c-1.509,0-2.736-1.227-2.736-2.734v-5.012c0-0.414-0.336-0.75-0.75-0.75s-0.75,0.336-0.75,0.75v5.012   c0,1.508-1.227,2.734-2.734,2.734s-2.734-1.227-2.734-2.734c0-0.414-0.336-0.75-0.75-0.75s-0.75,0.336-0.75,0.75   c0,2.335,1.899,4.234,4.234,4.234c1.445,0,2.72-0.729,3.484-1.837c0.765,1.108,2.041,1.837,3.486,1.837   c2.335,0,4.234-1.899,4.234-4.234C45.221,55.409,44.885,55.073,44.471,55.073z" fill="#A0490E"/><g><path d="M37.5,53.415c-0.25,0-0.502-0.096-0.693-0.287l-2.932-2.932c-0.281-0.279-0.365-0.703-0.213-1.068    c0.152-0.367,0.51-0.607,0.906-0.607h5.863c0.396,0,0.756,0.24,0.906,0.607c0.152,0.365,0.068,0.789-0.213,1.068l-2.93,2.932    C38.004,53.319,37.752,53.415,37.5,53.415z" fill="#BC2A54"/></g><path d="M37.5,53.415c0.252,0,0.504-0.096,0.695-0.287l2.762-2.764c-0.154-0.098-0.334-0.156-0.525-0.156h-5.863   c-0.189,0-0.371,0.059-0.525,0.156l2.764,2.764C36.998,53.319,37.25,53.415,37.5,53.415z" fill="#962248"/><g><g><path d="M37.5,54.165c-0.462,0-0.896-0.18-1.224-0.507l-2.932-2.932c-0.498-0.495-0.646-1.236-0.375-1.887     c0.27-0.649,0.896-1.069,1.599-1.069h5.863c0.705,0,1.333,0.421,1.601,1.073c0.27,0.646,0.121,1.388-0.379,1.885l-2.928,2.93     C38.398,53.985,37.964,54.165,37.5,54.165z M34.568,49.271c-0.093,0-0.177,0.057-0.214,0.145     c-0.035,0.085-0.016,0.185,0.049,0.249l2.934,2.934c0.117,0.117,0.211,0.117,0.328,0l2.93-2.932     c0.066-0.066,0.086-0.166,0.051-0.25c-0.036-0.089-0.122-0.146-0.214-0.146H34.568z" fill="#962248"/></g></g><g><g><g><polygon fill="#1BC1A9" points="27.701,28.667 22.9,34.979 18.969,26.253 26.877,26.835     "/><polygon fill="#109BAD" points="19.906,28.335 22.9,34.979 27.527,28.897     "/></g><g><polygon fill="#1BC1A9" points="26.877,26.835 31.678,20.524 35.611,29.251 27.701,28.667     "/><polygon fill="#109BAD" points="35.611,29.251 32.617,22.606 27.99,28.688     "/></g></g><path d="M30.223,27.921c0.344,0.768,0.002,1.67-0.766,2.016l-1.967,0.887c-0.768,0.346-1.67,0.004-2.016-0.762    l-1.117-2.479c-0.346-0.768-0.004-1.67,0.764-2.016l1.969-0.887c0.766-0.346,1.67-0.004,2.016,0.764L30.223,27.921z" fill="#1BC1A9"/><path d="M28.035,26.778l-1.969,0.889c-0.766,0.346-1.107,1.248-0.764,2.016l0.172,0.379    c0.346,0.766,1.248,1.107,2.016,0.762l1.967-0.887c0.768-0.346,1.109-1.248,0.766-2.016l-0.172-0.379    C29.705,26.774,28.803,26.435,28.035,26.778z" fill="#109BAD"/></g></g></svg>