<?xml version="1.0" ?><svg id="Layer_1" style="enable-background:new 0 0 64 64;" version="1.1" viewBox="0 0 64 64" xml:space="preserve" xmlns="http://www.w3.org/2000/svg" xmlns:xlink="http://www.w3.org/1999/xlink"><style type="text/css">
	.st0{fill:url(#SVGID_1_);}
	.st1{fill:url(#SVGID_2_);}
	.st2{fill:url(#SVGID_3_);}
	.st3{fill:url(#SVGID_4_);}
	.st4{fill:#FFFFFF;}
	.st5{fill:url(#SVGID_5_);}
	.st6{fill:url(#SVGID_6_);}
	.st7{fill:url(#SVGID_7_);}
	.st8{fill:url(#SVGID_8_);}
	.st9{fill:url(#SVGID_9_);}
	.st10{fill:#FFBF0B;}
	.st11{fill:#1A1A54;}
	.st12{fill:#DC2863;}
	.st13{fill:none;stroke:#1A1A54;stroke-width:3;stroke-linecap:round;stroke-linejoin:round;stroke-miterlimit:10;}
	.st14{fill:#0B85FF;}
	.st15{opacity:0.5;fill:#FFFFFF;}
	.st16{fill:#00AF64;}
	.st17{fill:#00D17C;}
	.st18{fill:none;stroke:#00D17C;stroke-width:3;stroke-linecap:round;stroke-linejoin:round;stroke-miterlimit:10;}
</style><circle class="st10" cx="32" cy="32" r="32"/><g><path class="st11" d="M13,20c1.4-0.2,2.5-0.2,3.8,0c1.2,0.2,2.5,0.5,3.6,1c1.2,0.5,2.3,1.1,3.3,1.8c1.1,0.7,2,1.6,2.9,2.5   c0.9,0.8,0.9,2.2,0,3.1c-0.4,0.4-1,0.6-1.5,0.7l-0.8,0l0,0c-1-0.3-2-0.6-3.1-0.7c-1.1-0.2-2.1-0.2-3.2-0.2c-1.1,0-2.2,0.1-3.3,0.3   c-1.1,0.2-2.2,0.4-3.2,0.8l-0.1,0c-0.6,0.2-1.3-0.1-1.5-0.8c-0.2-0.6,0.1-1.2,0.6-1.5c1.2-0.6,2.3-1.1,3.5-1.5   c1.2-0.4,2.4-0.7,3.7-0.9c1.3-0.2,2.5-0.3,3.8-0.3c1.3,0,2.6,0.1,3.9,0.3l0,0l-2.4,3.7c-0.6-0.8-1.2-1.6-1.9-2.3   c-0.7-0.7-1.5-1.3-2.3-1.8c-0.8-0.5-1.8-0.9-2.7-1.3c-0.9-0.3-2-0.5-2.9-0.5l-0.1,0c-0.6,0-1.1-0.5-1.1-1.2   C12.1,20.6,12.5,20.1,13,20z"/></g><circle class="st4" cx="46.5" cy="24.5" r="7.5"/><circle class="st11" cx="46.5" cy="24.5" r="4.5"/><g><path class="st11" d="M18.6,41.1c2.4-0.1,4.6,0,6.9,0c2.2,0.1,4.4,0.1,6.6,0.1l6.6,0c2.2,0,4.5-0.1,6.9,0.1l0,0   c1.1,0.1,1.9,1,1.8,2c0,0.6-0.4,1.1-0.8,1.5c-2.1,1.5-4.5,2.4-6.9,3.1c-2.5,0.7-5,1-7.6,1c-2.6,0-5.1-0.3-7.6-0.9   c-2.5-0.6-4.8-1.6-7-3c-1-0.6-1.3-2-0.6-2.9C17.2,41.4,17.8,41.1,18.6,41.1L18.6,41.1z"/></g><path class="st12" d="M32,61L32,61c-3.9,0-7-3.1-7-7v-8.4c0-1,0.7-1.8,1.6-2c3.6-0.8,7.2-0.8,10.8,0c0.9,0.2,1.6,1,1.6,2V54  C39,57.9,35.9,61,32,61z"/></svg>