<?xml version="1.0" ?><svg viewBox="0 0 64 64" xmlns="http://www.w3.org/2000/svg"><title/><g data-name="Layer 2" id="Layer_2"><circle cx="32" cy="32.019" r="27.758" style="fill:#f9bf44"/></g><g data-name="Layer 1" id="Layer_1"><path d="M44.56,31.229H19.44a3.271,3.271,0,0,0-3.27,3.27v13.08a3.265,3.265,0,0,0,3.27,3.27H44.56a3.265,3.265,0,0,0,3.27-3.27V34.5A3.271,3.271,0,0,0,44.56,31.229Z" style="fill:#fff"/><path d="M44.565,50.852H19.435a3.272,3.272,0,0,1-3.269-3.269V34.5a3.272,3.272,0,0,1,3.269-3.269h25.13A3.272,3.272,0,0,1,47.833,34.5V47.584A3.272,3.272,0,0,1,44.565,50.852Zm-25.13-17.62A1.27,1.27,0,0,0,18.167,34.5V47.584a1.27,1.27,0,0,0,1.269,1.269h25.13a1.27,1.27,0,0,0,1.269-1.269V34.5a1.27,1.27,0,0,0-1.269-1.269Z" style="fill:#382a12"/><path d="M17.778,33.96a.993.993,0,0,1-.582-.187L5.673,25.5a1,1,0,0,1,1.166-1.625l11.523,8.272a1,1,0,0,1-.584,1.813Z" style="fill:#382a12"/><path d="M14.694,53.4a1,1,0,0,1-.716-1.7l3.137-3.216a1,1,0,1,1,1.432,1.4L15.41,53.1A1,1,0,0,1,14.694,53.4Z" style="fill:#382a12"/><path d="M46.262,33.96a1,1,0,0,1-.584-1.812L57.2,23.875A1,1,0,0,1,58.368,25.5L46.844,33.772A.993.993,0,0,1,46.262,33.96Z" style="fill:#382a12"/><path d="M49.347,53.4a1,1,0,0,1-.716-.3l-3.137-3.216a1,1,0,0,1,1.432-1.4l3.137,3.216a1,1,0,0,1-.716,1.7Z" style="fill:#382a12"/><ellipse cx="21.361" cy="30.13" rx="2.5" ry="2.87" style="fill:#382a12"/><ellipse cx="43.356" cy="30.13" rx="2.5" ry="2.87" style="fill:#382a12"/><path d="M20.349,24.443A6.793,6.793,0,0,1,15.922,22.8a1,1,0,1,1,1.3-1.52,4.833,4.833,0,0,0,7.967-3.432,1.022,1.022,0,0,1,1.048-.949,1,1,0,0,1,.949,1.049,6.788,6.788,0,0,1-4.121,5.934A6.865,6.865,0,0,1,20.349,24.443Z" style="fill:#382a12"/><path d="M45.479,24.443a6.875,6.875,0,0,1-2.717-.563,6.789,6.789,0,0,1-4.122-5.935,1,1,0,0,1,.949-1.049,1.01,1.01,0,0,1,1.048.949,4.833,4.833,0,0,0,7.968,3.432,1,1,0,1,1,1.3,1.52A6.792,6.792,0,0,1,45.479,24.443Z" style="fill:#382a12"/></g></svg>